#!OML:ASF H:\Terrain\Patient Classification 1\Terrain2\Thursday\justin.ASF
:FULLY-SPECIFIED
:DEGREES
2929
root 13.7151 22.4544 20.851 -0.72685 -62.7005 -13.7207
lowerback 7.46325 1.8042 -5.76633
upperback 5.152 1.96094 1.02532
thorax 0.936444 0.783444 4.16814
lowerneck -5.55609 -4.59109 -11.4249
upperneck 40.8164 -11.621 12.3553
head 17.4302 -5.87461 5.68794
rclavicle -6.83322e-015 1.27222e-014
rhumerus -42.7609 -13.7889 -77.6148
rradius 27.9981
rwrist -5.60204
rhand -19.2134 14.1861
rfingers 7.12502
rthumb 7.09918 -15.6748
lclavicle -6.83322e-015 1.27222e-014
lhumerus -38.8019 6.10623 67.8803
lradius 43.0771
lwrist 6.5509
lhand -20.5912 19.5014
lfingers 7.12502
lthumb 5.76907 49.4029
rfemur -42.2708 -24.9652 18.7074
rtibia 47.3121
rfoot 14.8859 -3.95085
rtoes 11.6748
lfemur 15.8562 -1.3804 -6.22649
ltibia 42.1804
lfoot -27.9991 -20.0703
ltoes 0.620203
2930
root 13.5831 22.4033 20.8579 -0.383099 -62.3282 -14.4634
lowerback 7.37837 1.74063 -5.34545
upperback 5.22126 1.90629 0.942991
thorax 1.07375 0.761502 3.85232
lowerneck -5.55286 -4.59992 -11.4237
upperneck 40.7992 -11.6787 12.4805
head 17.4455 -5.88791 5.73758
rclavicle 5.6107e-014 -4.77083e-015
rhumerus -43.0032 -13.6504 -77.9299
rradius 28.0492
rwrist -5.55045
rhand -19.3124 14.2444
rfingers 7.12502
rthumb 7.00359 -15.6197
lclavicle 5.6107e-014 -4.77083e-015
lhumerus -38.8561 6.26716 67.2374
lradius 43.2591
lwrist 6.49272
lhand -20.7734 19.5047
lfingers 7.12502
lthumb 5.59313 49.4109
rfemur -41.7998 -25.7807 19.5238
rtibia 46.0355
rfoot 15.8044 -0.717151
rtoes -2.1836
lfemur 16.5314 -1.79281 -5.49844
ltibia 42.211
lfoot -28.1235 -20.5304
ltoes 0.431758
2931
root 13.4439 22.2941 20.8592 -0.165091 -62.0428 -15.0288
lowerback 7.34546 1.84987 -5.00089
upperback 5.2618 2.07338 0.812851
thorax 1.12975 0.853226 3.51291
lowerneck -5.55139 -4.67302 -11.2826
upperneck 40.7772 -11.9024 12.6931
head 17.4932 -5.93882 5.77501
rclavicle -4.14963e-015 2.06736e-014
rhumerus -43.4366 -13.5296 -78.3553
rradius 28.3538
rwrist -5.85949
rhand -19.7406 14.2585
rfingers 7.12502
rthumb 6.5902 -15.619
lclavicle -4.14963e-015 2.06736e-014
lhumerus -38.6258 5.9967 66.7115
lradius 43.2366
lwrist 6.37652
lhand -21.211 19.504
lfingers 7.12502
lthumb 5.1706 49.421
rfemur -41.6863 -27.1953 21.0026
rtibia 44.6085
rfoot 15.1572 6.04029
rtoes -27.705
lfemur 17.1912 -2.11551 -4.78024
ltibia 42.3274
lfoot -28.4498 -20.8396
ltoes -0.838238
2932
root 13.3121 22.3013 20.8619 -0.796733 -61.9306 -14.4116
lowerback 7.07267 1.88327 -5.45667
upperback 5.16074 2.11156 0.715008
thorax 1.16268 0.865615 3.67082
lowerneck -5.37286 -4.60445 -11.3909
upperneck 40.9086 -11.8243 12.7069
head 17.519 -5.93769 5.82871
rclavicle 7.2134e-014 1.74931e-014
rhumerus -43.7957 -12.782 -78.661
rradius 28.5331
rwrist -6.26127
rhand -19.7534 14.4781
rfingers 7.12502
rthumb 6.57792 -15.3998
lclavicle 7.2134e-014 1.74931e-014
lhumerus -38.9737 6.04888 66.3099
lradius 43.4091
lwrist 6.74351
lhand -21.8115 18.9368
lfingers 7.12502
lthumb 4.59077 48.8671
rfemur -40.2471 -25.3305 18.9102
rtibia 43.2665
rfoot 16.3139 -2.1335
rtoes 3.18724
lfemur 17.6897 -2.36883 -4.94018
ltibia 42.3664
lfoot -28.5155 -20.8927
ltoes -1.06641
2933
root 13.1771 22.2761 20.8708 -1.31526 -61.8073 -13.8498
lowerback 6.70424 1.77176 -5.84421
upperback 5.04153 1.96945 0.604088
thorax 1.25146 0.788762 3.79083
lowerneck -5.32087 -4.4779 -11.4788
upperneck 41.1704 -11.5975 12.534
head 17.6008 -5.89029 5.81845
rclavicle 3.72721e-015 -2.54444e-014
rhumerus -44.0171 -12.0076 -78.9066
rradius 28.5434
rwrist -6.55658
rhand -19.2042 14.4339
rfingers 7.12502
rthumb 7.10806 -15.4268
lclavicle 3.72721e-015 -2.54444e-014
lhumerus -39.6497 6.39442 65.7421
lradius 43.7452
lwrist 7.23637
lhand -21.7152 18.3961
lfingers 7.12502
lthumb 4.68374 48.3243
rfemur -39.0823 -23.6964 17.2454
rtibia 42.0509
rfoot 14.8084 -7.50996
rtoes 23.6675
lfemur 18.2372 -2.76019 -5.18958
ltibia 42.2238
lfoot -28.0765 -21.2135
ltoes 1.03909
2934
root 13.0322 22.1568 20.878 -1.71811 -61.5201 -13.6183
lowerback 6.60737 1.50179 -6.23236
upperback 4.93538 1.59832 0.673442
thorax 1.22671 0.597137 4.10537
lowerneck -5.38629 -4.21923 -11.8921
upperneck 41.5086 -11.0891 12.3668
head 17.7272 -5.77446 5.92557
rclavicle -1.18774e-014 -6.36111e-015
rhumerus -44.3265 -10.9588 -78.984
rradius 28.693
rwrist -6.63372
rhand -18.8052 13.7477
rfingers 7.12502
rthumb 7.49314 -16.0995
lclavicle -1.18774e-014 -6.36111e-015
lhumerus -40.504 7.11421 65.1713
lradius 43.9022
lwrist 7.20717
lhand -20.9241 18.7227
lfingers 7.12502
lthumb 5.44763 48.6327
rfemur -39.2792 -25.5321 18.5344
rtibia 40.9362
rfoot 16.6622 0.669374
rtoes -11.3777
lfemur 19.0134 -3.13477 -4.99714
ltibia 42.0012
lfoot -27.9112 -21.6311
ltoes 1.47439
2935
root 12.891 22.1587 20.8809 -1.84614 -61.2442 -13.7985
lowerback 6.75035 2.10599 -5.49599
upperback 4.97745 2.42777 -0.00369839
thorax 1.14512 1.03972 2.93359
lowerneck -5.25134 -4.84583 -10.3045
upperneck 41.1711 -12.3817 12.4075
head 17.6361 -6.05192 5.39582
rclavicle 7.10034e-015 -2.22639e-014
rhumerus -45.1279 -13.8439 -78.7435
rradius 28.9139
rwrist -5.85377
rhand -18.3594 13.4489
rfingers 7.12502
rthumb 7.92344 -16.3826
lclavicle 7.10034e-015 -2.22639e-014
lhumerus -39.2016 5.00131 64.6483
lradius 43.6416
lwrist 6.97335
lhand -20.6092 19.2689
lfingers 7.12502
lthumb 5.75167 49.1709
rfemur -37.753 -24.0251 17.1561
rtibia 39.8199
rfoot 15.8921 -5.20944
rtoes 9.23809
lfemur 19.8282 -3.38344 -4.53107
ltibia 41.7539
lfoot -27.897 -21.9355
ltoes 0.655098
2936
root 12.7445 22.1212 20.8839 -1.85268 -61.0535 -13.8917
lowerback 6.62212 2.40674 -5.22586
upperback 4.81316 2.8487 -0.321771
thorax 1.03337 1.26874 2.42811
lowerneck -4.85757 -5.0424 -9.92906
upperneck 41.0252 -12.9407 12.7785
head 17.5761 -6.21097 5.40719
rclavicle 5.06901e-015 2.54444e-014
rhumerus -45.992 -14.7102 -78.7516
rradius 29.2241
rwrist -5.86656
rhand -18.0454 13.8743
rfingers 7.12502
rthumb 8.22649 -15.9456
lclavicle 5.06901e-015 2.54444e-014
lhumerus -38.9864 3.99832 64.1375
lradius 43.7042
lwrist 6.85543
lhand -20.6833 19.4586
lfingers 7.12502
lthumb 5.68012 49.3625
rfemur -36.9647 -23.3249 16.7441
rtibia 38.7494
rfoot 15.421 -7.40919
rtoes 14.5082
lfemur 20.4797 -3.68405 -4.1637
ltibia 41.5269
lfoot -27.5759 -22.5374
ltoes 2.00511
2937
root 12.5953 22.04 20.8883 -1.85855 -60.9117 -13.8021
lowerback 6.1587 1.98278 -5.85646
upperback 4.69997 2.28979 0.116423
thorax 1.1815 0.970554 3.28217
lowerneck -5.04903 -4.63209 -11.264
upperneck 41.3834 -12.0692 12.8001
head 17.7784 -6.05708 5.84697
rclavicle 4.48259e-014 -1.59028e-015
rhumerus -46.041 -12.1809 -79.0471
rradius 29.4691
rwrist -6.54946
rhand -18.3005 14.1986
rfingers 7.12502
rthumb 7.98032 -15.6307
lclavicle 4.48259e-014 -1.59028e-015
lhumerus -40.2498 5.59245 63.8436
lradius 43.9774
lwrist 6.68503
lhand -20.7558 19.3226
lfingers 7.12502
lthumb 5.61009 49.2284
rfemur -36.6123 -23.1924 16.7684
rtibia 37.756
rfoot 15.4906 -7.94159
rtoes 14.8327
lfemur 21.0006 -3.92353 -3.857
ltibia 41.2675
lfoot -27.2155 -23.2308
ltoes 3.11527
2938
root 12.4464 22.0418 20.8984 -1.66881 -60.8317 -13.9632
lowerback 5.81223 2.12652 -5.59331
upperback 4.66391 2.51801 -0.103711
thorax 1.33184 1.09144 2.90516
lowerneck -5.11986 -4.81423 -10.9797
upperneck 41.2723 -12.4205 12.8919
head 17.7944 -6.14265 5.76665
rclavicle -6.18717e-014 -2.54444e-014
rhumerus -46.379 -12.4785 -79.2978
rradius 29.6643
rwrist -6.62678
rhand -18.6703 14.1186
rfingers 7.12502
rthumb 7.62343 -15.724
lclavicle -6.18717e-014 -2.54444e-014
lhumerus -40.0324 5.38145 63.257
lradius 43.8949
lwrist 6.44873
lhand -21.0567 18.9503
lfingers 7.12502
lthumb 5.3196 48.8636
rfemur -35.5344 -21.4944 15.6226
rtibia 36.7498
rfoot 12.7282 -12.4136
rtoes 30.9026
lfemur 21.5506 -4.12848 -3.53242
ltibia 40.9945
lfoot -26.7813 -23.7913
ltoes 4.03769
2939
root 12.2907 21.9588 20.9022 -2.25143 -60.7481 -13.289
lowerback 5.56348 1.89742 -6.25482
upperback 4.48224 2.20295 -0.0550058
thorax 1.28941 0.924962 3.34699
lowerneck -4.97299 -4.5325 -11.18
upperneck 41.3072 -11.7992 12.5645
head 17.6155 -5.95483 5.75575
rclavicle -4.80065e-014 -1.59028e-015
rhumerus -46.7507 -11.2538 -79.5402
rradius 29.8958
rwrist -6.73954
rhand -18.8088 14.082
rfingers 7.12502
rthumb 7.48971 -15.7654
lclavicle -4.80065e-014 -1.59028e-015
lhumerus -40.9813 6.58331 62.453
lradius 44.0141
lwrist 5.97657
lhand -20.8806 18.584
lfingers 7.12502
lthumb 5.48959 48.4929
rfemur -35.3039 -22.255 15.8956
rtibia 35.76
rfoot 14.4646 -10.3278
rtoes 22.7905
lfemur 22.1139 -4.4081 -3.63187
ltibia 40.9179
lfoot -26.8202 -24.0797
ltoes 4.06021
2940
root 12.1322 21.8908 20.9033 -3.03939 -60.604 -12.4207
lowerback 5.4454 1.93134 -6.72659
upperback 4.3347 2.23576 -0.25811
thorax 1.19232 0.940529 3.39976
lowerneck -4.93255 -4.47658 -11.1346
upperneck 41.3639 -11.7485 12.6044
head 17.6284 -5.92848 5.78036
rclavicle 5.26779e-015 2.22639e-014
rhumerus -47.3293 -11.1801 -79.6243
rradius 30.2204
rwrist -6.64739
rhand -19.0181 14.2965
rfingers 7.12502
rthumb 7.28763 -15.558
lclavicle 5.26779e-015 2.22639e-014
lhumerus -41.3785 6.5139 61.8651
lradius 44.1026
lwrist 5.78358
lhand -20.4138 18.6641
lfingers 7.12502
lthumb 5.94034 48.5608
rfemur -35.1599 -22.2082 15.5238
rtibia 34.9666
rfoot 15.4597 -9.82066
rtoes 17.0659
lfemur 22.759 -4.73583 -3.80667
ltibia 40.5966
lfoot -27.0886 -24.0686
ltoes 1.86384
2941
root 11.9681 21.8333 20.9133 -3.07725 -60.3721 -12.4671
lowerback 5.26171 2.10692 -6.344
upperback 4.28404 2.49854 -0.534322
thorax 1.2378 1.08391 2.89197
lowerneck -4.8443 -4.60644 -11.0839
upperneck 41.305 -12.1548 13.0543
head 17.7096 -6.05262 5.92157
rclavicle -1.635e-014 4.45278e-014
rhumerus -47.9282 -11.7561 -79.6826
rradius 30.5412
rwrist -6.74433
rhand -19.1511 14.2586
rfingers 7.12502
rthumb 7.15926 -15.6003
lclavicle -1.635e-014 4.45278e-014
lhumerus -41.237 5.68495 61.4318
lradius 44.0784
lwrist 5.93994
lhand -20.7484 18.8104
lfingers 7.12502
lthumb 5.61722 48.716
rfemur -34.4119 -22.3103 15.4732
rtibia 34.1191
rfoot 15.6341 -10.2872
rtoes 17.1874
lfemur 23.4047 -5.30484 -3.58774
ltibia 40.441
lfoot -27.0768 -24.3216
ltoes 1.59348
2942
root 11.8021 21.7824 20.9292 -3.18196 -60.073 -12.432
lowerback 5.03357 1.99406 -6.32506
upperback 4.25989 2.36858 -0.495245
thorax 1.35133 1.01721 2.93545
lowerneck -4.89055 -4.58102 -10.7628
upperneck 41.211 -11.9175 12.557
head 17.5242 -5.93759 5.6474
rclavicle -6.72886e-014 4.77083e-015
rhumerus -48.2642 -11.252 -79.6083
rradius 30.7558
rwrist -6.86985
rhand -18.799 14.1011
rfingers 7.12502
rthumb 7.49918 -15.7459
lclavicle -6.72886e-014 4.77083e-015
lhumerus -41.6968 5.95873 61.0017
lradius 44.1367
lwrist 5.99665
lhand -20.7669 18.7906
lfingers 7.12502
lthumb 5.59937 48.6966
rfemur -33.562 -22.3598 15.177
rtibia 33.0864
rfoot 15.9955 -11.4802
rtoes 20.005
lfemur 24.0318 -5.86639 -3.44182
ltibia 40.3191
lfoot -26.4359 -25.1606
ltoes 4.9025
